<?xml version="1.0" standalone="no"?>
<!DOCTYPE svg PUBLIC "-//W3C//DTD SVG 20010904//EN"
 "http://www.w3.org/TR/2001/REC-SVG-20010904/DTD/svg10.dtd">
<svg version="1.0" xmlns="http://www.w3.org/2000/svg"
 width="225.000000pt" height="225.000000pt" viewBox="0 0 225.000000 225.000000"
 preserveAspectRatio="xMidYMid meet">
<metadata>
Created by potrace 1.16, written by Peter Selinger 2001-2019
</metadata>
<g transform="translate(0.000000,225.000000) scale(0.100000,-0.100000)"
fill="#000000" stroke="none">
<path d="M721 1746 c-14 -57 -14 -114 0 -154 10 -28 8 -35 -21 -70 -69 -86
-80 -343 -20 -463 43 -84 171 -172 270 -185 l48 -6 -19 -42 c-10 -22 -19 -53
-19 -67 0 -22 -6 -28 -31 -33 -83 -16 -160 10 -207 72 -69 90 -93 111 -139
120 -76 17 -99 -8 -43 -48 17 -12 55 -64 85 -115 81 -138 149 -181 277 -173
l58 3 0 -87 0 -88 190 0 190 0 0 178 c-1 168 -4 193 -34 263 -5 12 5 18 54 27
115 21 217 98 268 201 26 53 27 63 26 191 -1 146 -12 194 -59 256 -21 27 -23
37 -15 59 13 34 13 120 -1 168 -8 28 -15 37 -32 37 -30 0 -80 -32 -130 -84
l-42 -43 -40 16 c-61 23 -316 22 -369 -2 l-40 -18 -45 48 c-45 47 -103 83
-134 83 -9 0 -19 -17 -26 -44z"/>
</g>
</svg>
